# xmcd CD database file
#
# Track frame offsets:
#	150
#	9550
#	17482
#	21970
#	25767
#	39212
#	44435
#	47937
#	59022
#	64592
#	72647
#	102022
#	107177
#	108877
#	141372
#	154115
#	156457
#	177482
#	181325
#	193020
#	198327
#	203685
#	210487
#	213215
#	222887
#	242237
#
# Disc length: 3349 seconds
#
# Revision: 3
# Processed by: cddbd v1.5.1PL0 Copyright (c) Steve Scherf et al.
# Submitted via: CDex 1.51
#
DISCID=790d131a
DTITLE=Charley Patton - ''Screamin' and Hollerin' the Blues'' - by The Masked Marvel - disc 7
DYEAR=2001
DGENRE=Blues
TTITLE0=Howlin' Wolf - interviewed by Pete Welding (ca. 1967)
TTITLE1=Booker Miller - interviewd by Gayle Dean Wardlow, part 1 (1968)
TTITLE2=Booker Miller - interviewd by Gayle Dean Wardlow, part 2 (1968)
TTITLE3=Booker Miller - interviewd by Gayle Dean Wardlow, part 3 (1968)
TTITLE4=Booker Miller - interviewd by Gayle Dean Wardlow, part 4 (1968)
TTITLE5=Booker Miller - interviewd by Gayle Dean Wardlow, part 5 (1968)
TTITLE6=Booker Miller - interviewd by Gayle Dean Wardlow, part 6 (1968)
TTITLE7=Booker Miller - interviewd by Gayle Dean Wardlow, part 7 (1968)
TTITLE8=Booker Miller - interviewd by Gayle Dean Wardlow, part 8 (1968)
TTITLE9=Booker Miller - interviewd by Gayle Dean Wardlow, part 9 (1968)
TTITLE10=Booker Miller - interviewd by Gayle Dean Wardlow, part 10 (1968)
TTITLE11=Booker Miller - interviewd by Gayle Dean Wardlow, part 11 (1968)
TTITLE12=Booker Miller - interviewd by Gayle Dean Wardlow, part 12 (1968)
TTITLE13=Booker Miller - interviewd by Gayle Dean Wardlow, part 13 (1968)
TTITLE14=Booker Miller - interviewd by Gayle Dean Wardlow, part 14 (1968)
TTITLE15=Booker Miller - interviewd by Gayle Dean Wardlow, part 15 (1968)
TTITLE16=H.C. Speir - interviewed by Gayle Dean Wardlow, part 1 (1968-69)
TTITLE17=H.C. Speir - interviewed by Gayle Dean Wardlow, part 2 (1968-69)
TTITLE18=H.C. Speir - interviewed by Gayle Dean Wardlow, part 3 (1968-69)
TTITLE19=H.C. Speir - interviewed by Gayle Dean Wardlow, part 4 (1968-69)
TTITLE20=H.C. Speir - interviewed by Gayle Dean Wardlow, part 5 (1968-69)
TTITLE21=H.C. Speir - interviewed by Gayle Dean Wardlow, part 6 (1968-69)
TTITLE22=H.C. Speir - interviewed by Gayle Dean Wardlow, part 7 (1968-69)
TTITLE23=H.C. Speir - interviewed by Gayle Dean Wardlow, part 8 (1968-69)
TTITLE24=H.C. Speir - interviewed by Gayle Dean Wardlow, part 9 (1968-69)
TTITLE25=Roebuck ''Pops'' Staples - interviewed by Chris Strachwitz (ca. 1964)
EXTD=YEAR: 2001
EXTT0=
EXTT1=
EXTT2=
EXTT3=
EXTT4=
EXTT5=
EXTT6=
EXTT7=
EXTT8=
EXTT9=
EXTT10=
EXTT11=
EXTT12=
EXTT13=
EXTT14=
EXTT15=
EXTT16=
EXTT17=
EXTT18=
EXTT19=
EXTT20=
EXTT21=
EXTT22=
EXTT23=
EXTT24=
EXTT25=
PLAYORDER=
